<svg xmlns="http://www.w3.org/2000/svg" width="160" height="32" viewBox="0 0 160 32"><defs><style>.a{fill:#fff;}</style></defs><g transform="translate(-445.938 -785.905)"><path class="a" d="M461.15,814.547h-6.579l-8.633-23.679h7l4.949,17.633h.138l5.087-17.633h6.716Z" transform="translate(0 2.581)"/><path class="a" d="M480.851,810.331c0,2.832.528,3.472,1.536,3.772v.753h-7.032a7.624,7.624,0,0,1-.638-2.751A9.763,9.763,0,0,1,467,815.617c-3.608,0-7.293-1.96-7.293-6.91s2.97-7.07,6.93-7.633l5.726-.847c.991-.138,2.193-.563,2.193-1.89,0-2.657-2.544-2.859-4.2-2.859-3.108,0-3.684,1.745-3.821,3.256h-6.092c.7-7.054,5.8-8.292,10.689-8.292,3.4,0,9.608,1.091,9.608,6.956ZM474.83,803.4a11.659,11.659,0,0,1-4.425,1.277c-2.618.326-4.3,1.056-4.3,3.676a2.741,2.741,0,0,0,2.551,2.973h.288c2.832,0,5.89-1.974,5.89-4.844Z" transform="translate(9.99 2.273)"/><rect class="a" width="6.434" height="31.223" transform="translate(494.298 785.905)"/><path class="a" d="M488.611,793.4h3.76v4.384h-3.527v12.5c0,1.3-.159,1.625,2.387,1.625h1.141v4.872h-3.634c-5.451,0-6.442-2.05-6.442-5.078V797.789h-3.023V793.4H482.3v-6.331h6.3Z" transform="translate(24.071 0.848)"/><path class="a" d="M510.705,807.775c-1.7,6.045-6.516,7.743-10.613,7.743-6.716,0-11.879-3.134-11.879-12.97,0-2.908,1.068-12.067,11.531-12.067,4.737,0,11.331,2.293,11.331,13.182v1.089H494.515c.138,2.016.564,5.722,5.589,5.722,1.767,0,3.608-.685,4.111-2.7Zm-6.228-7.055c-.35-4.029-2.906-5.023-4.887-5.023s-4.523,2-4.949,5.023Z" transform="translate(30.517 2.3)"/><path class="a" d="M524.35,806.241c-.214,2.482-2.117,9.336-10.889,9.336s-11.1-6.88-11.1-11.891c0-7.707,3.4-13.165,11.465-13.165,3.822,0,10.05,1.608,10.613,9.165h-6.364c-.288-1.512-1.2-4.029-3.884-4.029h-.352c-3.959,0-4.949,4.021-4.949,6.991s.076,7.75,4.811,7.75a4.357,4.357,0,0,0,4.311-4.159Z" transform="translate(40.729 2.328)"/><path class="a" d="M538.544,817.128h-6.283V803.3c0-1.711-.143-4.562-4.116-4.562-2.832,0-4.953,1.831-4.953,5.337v13.058h-6.551V785.905h6.551v11.221h.064c.777-1.952,3.534-3.589,6.93-3.589,4.673,0,8.343,2.617,8.343,7.688Z" transform="translate(51.006 0)"/><rect class="a" width="12.595" height="4.534" transform="translate(593.342 812.594)"/></g></svg>