<svg xmlns="http://www.w3.org/2000/svg" xmlns:xlink="http://www.w3.org/1999/xlink" width="469" height="185" viewBox="0 0 469 185"><defs><style>.a,.g{fill:none;}.b{opacity:0.3;}.b,.e{isolation:isolate;}.c{clip-path:url(#a);}.d{clip-path:url(#b);}.f{clip-path:url(#c);}.g{stroke:#979797;stroke-linecap:square;stroke-miterlimit:10;stroke-width:2px;}</style><clipPath id="a"><rect class="a" width="469" height="185" transform="translate(627.393 254.917)"/></clipPath><clipPath id="b"><rect class="a" width="468" height="184" transform="translate(627.799 255.548)"/></clipPath><clipPath id="c"><rect class="a" width="699" height="286" transform="translate(566.393 210.917)"/></clipPath></defs><g class="b" transform="translate(-627.393 -254.917)"><g class="c"><g class="d"><g class="e"><g class="f"><g class="c"><path class="g" d="M1054.1,221.264l200.757,207.889M1048.1,230.264l200.757,207.889M1034.1,230.264l200.757,207.889M1030.1,242.264l200.757,207.889M1014.1,242.264l200.757,207.889M1000.1,242.264l200.757,207.889M974.1,231.264l200.757,207.889M968.1,240.264l200.757,207.889M954.1,240.264l200.757,207.889M950.1,252.264l200.757,207.889M934.1,252.264l200.757,207.889M920.1,252.264l200.757,207.889M882.1,231.264l200.757,207.889M876.1,240.264l200.757,207.889M862.1,240.264l200.757,207.889M858.1,252.264l200.757,207.889M842.1,252.264l200.757,207.889M828.1,252.264l200.757,207.889M792.1,231.264,992.857,439.153M786.1,240.264,986.857,448.153M772.1,240.264,972.857,448.153M768.1,252.264,968.857,460.153M752.1,252.264,952.857,460.153M738.1,252.264,938.857,460.153M701.1,231.264,901.857,439.153M695.1,240.264,895.857,448.153M681.1,240.264,881.857,448.153M677.1,252.264,877.857,460.153M661.1,252.264,861.857,460.153M647.1,252.264,847.857,460.153M635.1,255.264l186.864,193.5M629.1,264.264l186.864,193.5M615.1,264.264l186.864,193.5M611.1,276.264l186.864,193.5M595.1,276.264l186.864,193.5M581.1,276.264l186.864,193.5M622.1,334.264,739.5,455.833M625.1,353.264,742.5,474.833M611.1,353.264,728.5,474.833M607.1,365.264,724.5,486.833M591.1,365.264,708.5,486.833M577.1,365.264,694.5,486.833"/></g></g></g></g></g></g></svg>